<mxfile host="Electron" modified="2024-01-20T12:10:40.927Z" agent="Mozilla/5.0 (Macintosh; Intel Mac OS X 10_15_7) AppleWebKit/537.36 (KHTML, like Gecko) draw.io/22.1.18 Chrome/120.0.6099.199 Electron/28.1.2 Safari/537.36" etag="182EhpINPE1zFShSf7SP" version="22.1.18" type="device">
  <diagram id="C5RBs43oDa-KdzZeNtuy" name="Page-1">
    <mxGraphModel dx="1912" dy="1139" grid="1" gridSize="10" guides="1" tooltips="1" connect="1" arrows="1" fold="1" page="1" pageScale="1" pageWidth="827" pageHeight="1169" math="0" shadow="0">
      <root>
        <mxCell id="WIyWlLk6GJQsqaUBKTNV-0" />
        <mxCell id="WIyWlLk6GJQsqaUBKTNV-1" parent="WIyWlLk6GJQsqaUBKTNV-0" />
        <mxCell id="794QUzYqEtfinhLW96Dt-0" value="Sistema de gestão de uma livraria" style="text;html=1;align=center;verticalAlign=middle;resizable=0;points=[];autosize=1;strokeColor=none;fillColor=none;fontSize=20;fontFamily=Architects Daughter;" parent="WIyWlLk6GJQsqaUBKTNV-1" vertex="1">
          <mxGeometry x="245.5" y="40" width="330" height="40" as="geometry" />
        </mxCell>
        <mxCell id="794QUzYqEtfinhLW96Dt-3" value="" style="edgeStyle=elbowEdgeStyle;rounded=0;sketch=1;hachureGap=4;jiggle=2;curveFitting=1;orthogonalLoop=1;jettySize=auto;html=1;fontFamily=Architects Daughter;fontSource=https%3A%2F%2Ffonts.googleapis.com%2Fcss%3Ffamily%3DArchitects%2BDaughter;fontSize=16;elbow=vertical;" parent="WIyWlLk6GJQsqaUBKTNV-1" source="794QUzYqEtfinhLW96Dt-1" target="794QUzYqEtfinhLW96Dt-2" edge="1">
          <mxGeometry relative="1" as="geometry" />
        </mxCell>
        <mxCell id="794QUzYqEtfinhLW96Dt-6" style="edgeStyle=orthogonalEdgeStyle;rounded=0;sketch=1;hachureGap=4;jiggle=2;curveFitting=1;orthogonalLoop=1;jettySize=auto;html=1;exitX=0.5;exitY=1;exitDx=0;exitDy=0;entryX=0.5;entryY=0;entryDx=0;entryDy=0;fontFamily=Architects Daughter;fontSource=https%3A%2F%2Ffonts.googleapis.com%2Fcss%3Ffamily%3DArchitects%2BDaughter;fontSize=16;" parent="WIyWlLk6GJQsqaUBKTNV-1" source="794QUzYqEtfinhLW96Dt-1" target="794QUzYqEtfinhLW96Dt-5" edge="1">
          <mxGeometry relative="1" as="geometry" />
        </mxCell>
        <mxCell id="794QUzYqEtfinhLW96Dt-7" style="edgeStyle=orthogonalEdgeStyle;rounded=0;sketch=1;hachureGap=4;jiggle=2;curveFitting=1;orthogonalLoop=1;jettySize=auto;html=1;exitX=0.5;exitY=1;exitDx=0;exitDy=0;entryX=0.5;entryY=0;entryDx=0;entryDy=0;fontFamily=Architects Daughter;fontSource=https%3A%2F%2Ffonts.googleapis.com%2Fcss%3Ffamily%3DArchitects%2BDaughter;fontSize=16;" parent="WIyWlLk6GJQsqaUBKTNV-1" source="794QUzYqEtfinhLW96Dt-1" target="794QUzYqEtfinhLW96Dt-4" edge="1">
          <mxGeometry relative="1" as="geometry" />
        </mxCell>
        <mxCell id="794QUzYqEtfinhLW96Dt-10" value="" style="edgeStyle=orthogonalEdgeStyle;rounded=0;sketch=1;hachureGap=4;jiggle=2;curveFitting=1;orthogonalLoop=1;jettySize=auto;html=1;fontFamily=Architects Daughter;fontSource=https%3A%2F%2Ffonts.googleapis.com%2Fcss%3Ffamily%3DArchitects%2BDaughter;fontSize=16;" parent="WIyWlLk6GJQsqaUBKTNV-1" source="794QUzYqEtfinhLW96Dt-1" target="794QUzYqEtfinhLW96Dt-9" edge="1">
          <mxGeometry relative="1" as="geometry" />
        </mxCell>
        <mxCell id="794QUzYqEtfinhLW96Dt-1" value="Funcionários" style="rounded=0;whiteSpace=wrap;html=1;sketch=1;hachureGap=4;jiggle=2;curveFitting=1;fontFamily=Architects Daughter;fontSource=https%3A%2F%2Ffonts.googleapis.com%2Fcss%3Ffamily%3DArchitects%2BDaughter;fontSize=20;" parent="WIyWlLk6GJQsqaUBKTNV-1" vertex="1">
          <mxGeometry x="335.5" y="97" width="150" height="60" as="geometry" />
        </mxCell>
        <mxCell id="794QUzYqEtfinhLW96Dt-17" value="" style="edgeStyle=orthogonalEdgeStyle;rounded=0;sketch=1;hachureGap=4;jiggle=2;curveFitting=1;orthogonalLoop=1;jettySize=auto;html=1;fontFamily=Architects Daughter;fontSource=https%3A%2F%2Ffonts.googleapis.com%2Fcss%3Ffamily%3DArchitects%2BDaughter;fontSize=16;" parent="WIyWlLk6GJQsqaUBKTNV-1" source="794QUzYqEtfinhLW96Dt-2" target="794QUzYqEtfinhLW96Dt-16" edge="1">
          <mxGeometry relative="1" as="geometry" />
        </mxCell>
        <mxCell id="794QUzYqEtfinhLW96Dt-2" value="Caixa" style="whiteSpace=wrap;html=1;fontSize=20;fontFamily=Architects Daughter;rounded=0;sketch=1;hachureGap=4;jiggle=2;curveFitting=1;fontSource=https%3A%2F%2Ffonts.googleapis.com%2Fcss%3Ffamily%3DArchitects%2BDaughter;" parent="WIyWlLk6GJQsqaUBKTNV-1" vertex="1">
          <mxGeometry x="350.5" y="237" width="120" height="60" as="geometry" />
        </mxCell>
        <mxCell id="794QUzYqEtfinhLW96Dt-12" value="" style="edgeStyle=orthogonalEdgeStyle;rounded=0;sketch=1;hachureGap=4;jiggle=2;curveFitting=1;orthogonalLoop=1;jettySize=auto;html=1;fontFamily=Architects Daughter;fontSource=https%3A%2F%2Ffonts.googleapis.com%2Fcss%3Ffamily%3DArchitects%2BDaughter;fontSize=16;" parent="WIyWlLk6GJQsqaUBKTNV-1" source="794QUzYqEtfinhLW96Dt-4" target="794QUzYqEtfinhLW96Dt-11" edge="1">
          <mxGeometry relative="1" as="geometry" />
        </mxCell>
        <mxCell id="794QUzYqEtfinhLW96Dt-18" style="edgeStyle=orthogonalEdgeStyle;rounded=0;sketch=1;hachureGap=4;jiggle=2;curveFitting=1;orthogonalLoop=1;jettySize=auto;html=1;exitX=0.5;exitY=1;exitDx=0;exitDy=0;entryX=0.5;entryY=0;entryDx=0;entryDy=0;fontFamily=Architects Daughter;fontSource=https%3A%2F%2Ffonts.googleapis.com%2Fcss%3Ffamily%3DArchitects%2BDaughter;fontSize=16;" parent="WIyWlLk6GJQsqaUBKTNV-1" source="794QUzYqEtfinhLW96Dt-4" target="794QUzYqEtfinhLW96Dt-16" edge="1">
          <mxGeometry relative="1" as="geometry">
            <Array as="points">
              <mxPoint x="550.5" y="327" />
              <mxPoint x="410.5" y="327" />
            </Array>
          </mxGeometry>
        </mxCell>
        <mxCell id="794QUzYqEtfinhLW96Dt-4" value="Gerente" style="whiteSpace=wrap;html=1;fontSize=20;fontFamily=Architects Daughter;rounded=0;sketch=1;hachureGap=4;jiggle=2;curveFitting=1;fontSource=https%3A%2F%2Ffonts.googleapis.com%2Fcss%3Ffamily%3DArchitects%2BDaughter;" parent="WIyWlLk6GJQsqaUBKTNV-1" vertex="1">
          <mxGeometry x="490.5" y="237" width="120" height="60" as="geometry" />
        </mxCell>
        <mxCell id="794QUzYqEtfinhLW96Dt-15" value="" style="edgeStyle=orthogonalEdgeStyle;rounded=0;sketch=1;hachureGap=4;jiggle=2;curveFitting=1;orthogonalLoop=1;jettySize=auto;html=1;fontFamily=Architects Daughter;fontSource=https%3A%2F%2Ffonts.googleapis.com%2Fcss%3Ffamily%3DArchitects%2BDaughter;fontSize=16;" parent="WIyWlLk6GJQsqaUBKTNV-1" source="794QUzYqEtfinhLW96Dt-5" target="794QUzYqEtfinhLW96Dt-14" edge="1">
          <mxGeometry relative="1" as="geometry" />
        </mxCell>
        <mxCell id="794QUzYqEtfinhLW96Dt-5" value="Repositor" style="whiteSpace=wrap;html=1;fontSize=20;fontFamily=Architects Daughter;rounded=0;sketch=1;hachureGap=4;jiggle=2;curveFitting=1;fontSource=https%3A%2F%2Ffonts.googleapis.com%2Fcss%3Ffamily%3DArchitects%2BDaughter;" parent="WIyWlLk6GJQsqaUBKTNV-1" vertex="1">
          <mxGeometry x="210.5" y="237" width="120" height="60" as="geometry" />
        </mxCell>
        <mxCell id="794QUzYqEtfinhLW96Dt-9" value="Precisam de fazer login" style="rounded=0;whiteSpace=wrap;html=1;sketch=1;hachureGap=4;jiggle=2;curveFitting=1;fontFamily=Architects Daughter;fontSource=https%3A%2F%2Ffonts.googleapis.com%2Fcss%3Ffamily%3DArchitects%2BDaughter;fontSize=20;" parent="WIyWlLk6GJQsqaUBKTNV-1" vertex="1">
          <mxGeometry x="565.5" y="97" width="150" height="60" as="geometry" />
        </mxCell>
        <mxCell id="794QUzYqEtfinhLW96Dt-11" value="Criar e eliminar outros funcionários" style="whiteSpace=wrap;html=1;fontSize=20;fontFamily=Architects Daughter;rounded=0;sketch=1;hachureGap=4;jiggle=2;curveFitting=1;fontSource=https%3A%2F%2Ffonts.googleapis.com%2Fcss%3Ffamily%3DArchitects%2BDaughter;" parent="WIyWlLk6GJQsqaUBKTNV-1" vertex="1">
          <mxGeometry x="490.5" y="347" width="210" height="60" as="geometry" />
        </mxCell>
        <mxCell id="794QUzYqEtfinhLW96Dt-14" value="Pode adicionar novos produtos ao stock" style="whiteSpace=wrap;html=1;fontSize=20;fontFamily=Architects Daughter;rounded=0;sketch=1;hachureGap=4;jiggle=2;curveFitting=1;fontSource=https%3A%2F%2Ffonts.googleapis.com%2Fcss%3Ffamily%3DArchitects%2BDaughter;" parent="WIyWlLk6GJQsqaUBKTNV-1" vertex="1">
          <mxGeometry x="80.5" y="357" width="250" height="60" as="geometry" />
        </mxCell>
        <mxCell id="794QUzYqEtfinhLW96Dt-16" value="Pode vender" style="whiteSpace=wrap;html=1;fontSize=20;fontFamily=Architects Daughter;rounded=0;sketch=1;hachureGap=4;jiggle=2;curveFitting=1;fontSource=https%3A%2F%2Ffonts.googleapis.com%2Fcss%3Ffamily%3DArchitects%2BDaughter;" parent="WIyWlLk6GJQsqaUBKTNV-1" vertex="1">
          <mxGeometry x="350.5" y="427" width="120" height="60" as="geometry" />
        </mxCell>
        <mxCell id="794QUzYqEtfinhLW96Dt-46" style="edgeStyle=orthogonalEdgeStyle;rounded=0;sketch=1;hachureGap=4;jiggle=2;curveFitting=1;orthogonalLoop=1;jettySize=auto;html=1;entryX=0;entryY=0.5;entryDx=0;entryDy=0;fontFamily=Architects Daughter;fontSource=https%3A%2F%2Ffonts.googleapis.com%2Fcss%3Ffamily%3DArchitects%2BDaughter;fontSize=16;" parent="WIyWlLk6GJQsqaUBKTNV-1" source="794QUzYqEtfinhLW96Dt-35" target="794QUzYqEtfinhLW96Dt-41" edge="1">
          <mxGeometry relative="1" as="geometry" />
        </mxCell>
        <mxCell id="794QUzYqEtfinhLW96Dt-47" style="edgeStyle=orthogonalEdgeStyle;rounded=0;sketch=1;hachureGap=4;jiggle=2;curveFitting=1;orthogonalLoop=1;jettySize=auto;html=1;entryX=0;entryY=0.5;entryDx=0;entryDy=0;fontFamily=Architects Daughter;fontSource=https%3A%2F%2Ffonts.googleapis.com%2Fcss%3Ffamily%3DArchitects%2BDaughter;fontSize=16;" parent="WIyWlLk6GJQsqaUBKTNV-1" source="794QUzYqEtfinhLW96Dt-35" target="794QUzYqEtfinhLW96Dt-40" edge="1">
          <mxGeometry relative="1" as="geometry" />
        </mxCell>
        <mxCell id="794QUzYqEtfinhLW96Dt-48" style="edgeStyle=orthogonalEdgeStyle;rounded=0;sketch=1;hachureGap=4;jiggle=2;curveFitting=1;orthogonalLoop=1;jettySize=auto;html=1;exitX=1;exitY=0.5;exitDx=0;exitDy=0;entryX=0;entryY=0.5;entryDx=0;entryDy=0;fontFamily=Architects Daughter;fontSource=https%3A%2F%2Ffonts.googleapis.com%2Fcss%3Ffamily%3DArchitects%2BDaughter;fontSize=16;" parent="WIyWlLk6GJQsqaUBKTNV-1" source="794QUzYqEtfinhLW96Dt-35" target="794QUzYqEtfinhLW96Dt-36" edge="1">
          <mxGeometry relative="1" as="geometry" />
        </mxCell>
        <mxCell id="794QUzYqEtfinhLW96Dt-49" style="edgeStyle=orthogonalEdgeStyle;rounded=0;sketch=1;hachureGap=4;jiggle=2;curveFitting=1;orthogonalLoop=1;jettySize=auto;html=1;entryX=0;entryY=0.5;entryDx=0;entryDy=0;fontFamily=Architects Daughter;fontSource=https%3A%2F%2Ffonts.googleapis.com%2Fcss%3Ffamily%3DArchitects%2BDaughter;fontSize=16;" parent="WIyWlLk6GJQsqaUBKTNV-1" source="794QUzYqEtfinhLW96Dt-35" target="794QUzYqEtfinhLW96Dt-39" edge="1">
          <mxGeometry relative="1" as="geometry" />
        </mxCell>
        <mxCell id="794QUzYqEtfinhLW96Dt-50" style="edgeStyle=orthogonalEdgeStyle;rounded=0;sketch=1;hachureGap=4;jiggle=2;curveFitting=1;orthogonalLoop=1;jettySize=auto;html=1;entryX=0;entryY=0.5;entryDx=0;entryDy=0;fontFamily=Architects Daughter;fontSource=https%3A%2F%2Ffonts.googleapis.com%2Fcss%3Ffamily%3DArchitects%2BDaughter;fontSize=16;" parent="WIyWlLk6GJQsqaUBKTNV-1" source="794QUzYqEtfinhLW96Dt-35" target="794QUzYqEtfinhLW96Dt-42" edge="1">
          <mxGeometry relative="1" as="geometry" />
        </mxCell>
        <mxCell id="794QUzYqEtfinhLW96Dt-51" style="edgeStyle=orthogonalEdgeStyle;rounded=0;sketch=1;hachureGap=4;jiggle=2;curveFitting=1;orthogonalLoop=1;jettySize=auto;html=1;entryX=0;entryY=0.5;entryDx=0;entryDy=0;fontFamily=Architects Daughter;fontSource=https%3A%2F%2Ffonts.googleapis.com%2Fcss%3Ffamily%3DArchitects%2BDaughter;fontSize=16;" parent="WIyWlLk6GJQsqaUBKTNV-1" source="794QUzYqEtfinhLW96Dt-35" target="794QUzYqEtfinhLW96Dt-43" edge="1">
          <mxGeometry relative="1" as="geometry" />
        </mxCell>
        <mxCell id="794QUzYqEtfinhLW96Dt-52" style="edgeStyle=orthogonalEdgeStyle;rounded=0;sketch=1;hachureGap=4;jiggle=2;curveFitting=1;orthogonalLoop=1;jettySize=auto;html=1;entryX=0;entryY=0.5;entryDx=0;entryDy=0;fontFamily=Architects Daughter;fontSource=https%3A%2F%2Ffonts.googleapis.com%2Fcss%3Ffamily%3DArchitects%2BDaughter;fontSize=16;" parent="WIyWlLk6GJQsqaUBKTNV-1" source="794QUzYqEtfinhLW96Dt-35" target="794QUzYqEtfinhLW96Dt-44" edge="1">
          <mxGeometry relative="1" as="geometry" />
        </mxCell>
        <mxCell id="794QUzYqEtfinhLW96Dt-53" style="edgeStyle=orthogonalEdgeStyle;rounded=0;sketch=1;hachureGap=4;jiggle=2;curveFitting=1;orthogonalLoop=1;jettySize=auto;html=1;entryX=0;entryY=0.5;entryDx=0;entryDy=0;fontFamily=Architects Daughter;fontSource=https%3A%2F%2Ffonts.googleapis.com%2Fcss%3Ffamily%3DArchitects%2BDaughter;fontSize=16;" parent="WIyWlLk6GJQsqaUBKTNV-1" source="794QUzYqEtfinhLW96Dt-35" target="794QUzYqEtfinhLW96Dt-45" edge="1">
          <mxGeometry relative="1" as="geometry" />
        </mxCell>
        <mxCell id="794QUzYqEtfinhLW96Dt-35" value="Livros" style="rounded=0;whiteSpace=wrap;html=1;sketch=1;hachureGap=4;jiggle=2;curveFitting=1;fontFamily=Architects Daughter;fontSource=https%3A%2F%2Ffonts.googleapis.com%2Fcss%3Ffamily%3DArchitects%2BDaughter;fontSize=20;" parent="WIyWlLk6GJQsqaUBKTNV-1" vertex="1">
          <mxGeometry x="85" y="810" width="150" height="40" as="geometry" />
        </mxCell>
        <mxCell id="794QUzYqEtfinhLW96Dt-36" value="Código" style="rounded=0;whiteSpace=wrap;html=1;sketch=1;hachureGap=4;jiggle=2;curveFitting=1;fontFamily=Architects Daughter;fontSource=https%3A%2F%2Ffonts.googleapis.com%2Fcss%3Ffamily%3DArchitects%2BDaughter;fontSize=20;" parent="WIyWlLk6GJQsqaUBKTNV-1" vertex="1">
          <mxGeometry x="325" y="530" width="160" height="40" as="geometry" />
        </mxCell>
        <mxCell id="794QUzYqEtfinhLW96Dt-39" value="Título" style="rounded=0;whiteSpace=wrap;html=1;sketch=1;hachureGap=4;jiggle=2;curveFitting=1;fontFamily=Architects Daughter;fontSource=https%3A%2F%2Ffonts.googleapis.com%2Fcss%3Ffamily%3DArchitects%2BDaughter;fontSize=20;" parent="WIyWlLk6GJQsqaUBKTNV-1" vertex="1">
          <mxGeometry x="325" y="610" width="160" height="40" as="geometry" />
        </mxCell>
        <mxCell id="794QUzYqEtfinhLW96Dt-40" value="Autor" style="rounded=0;whiteSpace=wrap;html=1;sketch=1;hachureGap=4;jiggle=2;curveFitting=1;fontFamily=Architects Daughter;fontSource=https%3A%2F%2Ffonts.googleapis.com%2Fcss%3Ffamily%3DArchitects%2BDaughter;fontSize=20;" parent="WIyWlLk6GJQsqaUBKTNV-1" vertex="1">
          <mxGeometry x="325" y="690" width="160" height="40" as="geometry" />
        </mxCell>
        <mxCell id="794QUzYqEtfinhLW96Dt-41" value="ISBN" style="rounded=0;whiteSpace=wrap;html=1;sketch=1;hachureGap=4;jiggle=2;curveFitting=1;fontFamily=Architects Daughter;fontSource=https%3A%2F%2Ffonts.googleapis.com%2Fcss%3Ffamily%3DArchitects%2BDaughter;fontSize=20;" parent="WIyWlLk6GJQsqaUBKTNV-1" vertex="1">
          <mxGeometry x="325" y="770" width="160" height="40" as="geometry" />
        </mxCell>
        <mxCell id="794QUzYqEtfinhLW96Dt-42" value="Género&lt;br&gt;(Romance, Ciência, Ensino, Policial, ...)" style="rounded=0;whiteSpace=wrap;html=1;sketch=1;hachureGap=4;jiggle=2;curveFitting=1;fontFamily=Architects Daughter;fontSource=https%3A%2F%2Ffonts.googleapis.com%2Fcss%3Ffamily%3DArchitects%2BDaughter;fontSize=20;" parent="WIyWlLk6GJQsqaUBKTNV-1" vertex="1">
          <mxGeometry x="325" y="850" width="355" height="80" as="geometry" />
        </mxCell>
        <mxCell id="794QUzYqEtfinhLW96Dt-43" value="Preço" style="rounded=0;whiteSpace=wrap;html=1;sketch=1;hachureGap=4;jiggle=2;curveFitting=1;fontFamily=Architects Daughter;fontSource=https%3A%2F%2Ffonts.googleapis.com%2Fcss%3Ffamily%3DArchitects%2BDaughter;fontSize=20;" parent="WIyWlLk6GJQsqaUBKTNV-1" vertex="1">
          <mxGeometry x="325" y="970" width="160" height="40" as="geometry" />
        </mxCell>
        <mxCell id="794QUzYqEtfinhLW96Dt-44" value="Taxa IVA&lt;br&gt;(6%, 23%)" style="rounded=0;whiteSpace=wrap;html=1;sketch=1;hachureGap=4;jiggle=2;curveFitting=1;fontFamily=Architects Daughter;fontSource=https%3A%2F%2Ffonts.googleapis.com%2Fcss%3Ffamily%3DArchitects%2BDaughter;fontSize=20;" parent="WIyWlLk6GJQsqaUBKTNV-1" vertex="1">
          <mxGeometry x="325" y="1050" width="160" height="80" as="geometry" />
        </mxCell>
        <mxCell id="794QUzYqEtfinhLW96Dt-45" value="Stock&lt;br&gt;(Quantidade existente)" style="rounded=0;whiteSpace=wrap;html=1;sketch=1;hachureGap=4;jiggle=2;curveFitting=1;fontFamily=Architects Daughter;fontSource=https%3A%2F%2Ffonts.googleapis.com%2Fcss%3Ffamily%3DArchitects%2BDaughter;fontSize=20;" parent="WIyWlLk6GJQsqaUBKTNV-1" vertex="1">
          <mxGeometry x="325" y="1170" width="240" height="80" as="geometry" />
        </mxCell>
        <mxCell id="794QUzYqEtfinhLW96Dt-83" style="edgeStyle=orthogonalEdgeStyle;rounded=0;sketch=1;hachureGap=4;jiggle=2;curveFitting=1;orthogonalLoop=1;jettySize=auto;html=1;entryX=1;entryY=0.5;entryDx=0;entryDy=0;fontFamily=Architects Daughter;fontSource=https%3A%2F%2Ffonts.googleapis.com%2Fcss%3Ffamily%3DArchitects%2BDaughter;fontSize=16;" parent="WIyWlLk6GJQsqaUBKTNV-1" source="794QUzYqEtfinhLW96Dt-55" target="794QUzYqEtfinhLW96Dt-67" edge="1">
          <mxGeometry relative="1" as="geometry" />
        </mxCell>
        <mxCell id="794QUzYqEtfinhLW96Dt-84" style="edgeStyle=orthogonalEdgeStyle;rounded=0;sketch=1;hachureGap=4;jiggle=2;curveFitting=1;orthogonalLoop=1;jettySize=auto;html=1;entryX=1;entryY=0.5;entryDx=0;entryDy=0;fontFamily=Architects Daughter;fontSource=https%3A%2F%2Ffonts.googleapis.com%2Fcss%3Ffamily%3DArchitects%2BDaughter;fontSize=16;" parent="WIyWlLk6GJQsqaUBKTNV-1" source="794QUzYqEtfinhLW96Dt-55" target="794QUzYqEtfinhLW96Dt-68" edge="1">
          <mxGeometry relative="1" as="geometry" />
        </mxCell>
        <mxCell id="794QUzYqEtfinhLW96Dt-55" value="Caixa" style="whiteSpace=wrap;html=1;fontSize=20;fontFamily=Architects Daughter;rounded=0;sketch=1;hachureGap=4;jiggle=2;curveFitting=1;fontSource=https%3A%2F%2Ffonts.googleapis.com%2Fcss%3Ffamily%3DArchitects%2BDaughter;" parent="WIyWlLk6GJQsqaUBKTNV-1" vertex="1">
          <mxGeometry x="890" y="1420" width="160" height="40" as="geometry" />
        </mxCell>
        <mxCell id="794QUzYqEtfinhLW96Dt-80" style="edgeStyle=orthogonalEdgeStyle;rounded=0;sketch=1;hachureGap=4;jiggle=2;curveFitting=1;orthogonalLoop=1;jettySize=auto;html=1;entryX=1;entryY=0.5;entryDx=0;entryDy=0;fontFamily=Architects Daughter;fontSource=https%3A%2F%2Ffonts.googleapis.com%2Fcss%3Ffamily%3DArchitects%2BDaughter;fontSize=16;" parent="WIyWlLk6GJQsqaUBKTNV-1" source="794QUzYqEtfinhLW96Dt-56" target="794QUzYqEtfinhLW96Dt-66" edge="1">
          <mxGeometry relative="1" as="geometry" />
        </mxCell>
        <mxCell id="794QUzYqEtfinhLW96Dt-81" style="edgeStyle=orthogonalEdgeStyle;rounded=0;sketch=1;hachureGap=4;jiggle=2;curveFitting=1;orthogonalLoop=1;jettySize=auto;html=1;entryX=1;entryY=0.5;entryDx=0;entryDy=0;fontFamily=Architects Daughter;fontSource=https%3A%2F%2Ffonts.googleapis.com%2Fcss%3Ffamily%3DArchitects%2BDaughter;fontSize=16;" parent="WIyWlLk6GJQsqaUBKTNV-1" source="794QUzYqEtfinhLW96Dt-56" target="794QUzYqEtfinhLW96Dt-71" edge="1">
          <mxGeometry relative="1" as="geometry" />
        </mxCell>
        <mxCell id="794QUzYqEtfinhLW96Dt-82" style="edgeStyle=orthogonalEdgeStyle;rounded=0;sketch=1;hachureGap=4;jiggle=2;curveFitting=1;orthogonalLoop=1;jettySize=auto;html=1;entryX=1;entryY=0.5;entryDx=0;entryDy=0;fontFamily=Architects Daughter;fontSource=https%3A%2F%2Ffonts.googleapis.com%2Fcss%3Ffamily%3DArchitects%2BDaughter;fontSize=16;" parent="WIyWlLk6GJQsqaUBKTNV-1" source="794QUzYqEtfinhLW96Dt-56" target="794QUzYqEtfinhLW96Dt-72" edge="1">
          <mxGeometry relative="1" as="geometry" />
        </mxCell>
        <mxCell id="794QUzYqEtfinhLW96Dt-103" style="edgeStyle=orthogonalEdgeStyle;rounded=0;sketch=1;hachureGap=4;jiggle=2;curveFitting=1;orthogonalLoop=1;jettySize=auto;html=1;entryX=1;entryY=0.5;entryDx=0;entryDy=0;fontFamily=Architects Daughter;fontSource=https%3A%2F%2Ffonts.googleapis.com%2Fcss%3Ffamily%3DArchitects%2BDaughter;fontSize=16;" parent="WIyWlLk6GJQsqaUBKTNV-1" source="794QUzYqEtfinhLW96Dt-56" target="794QUzYqEtfinhLW96Dt-102" edge="1">
          <mxGeometry relative="1" as="geometry" />
        </mxCell>
        <mxCell id="794QUzYqEtfinhLW96Dt-56" value="Gerente" style="whiteSpace=wrap;html=1;fontSize=20;fontFamily=Architects Daughter;rounded=0;sketch=1;hachureGap=4;jiggle=2;curveFitting=1;fontSource=https%3A%2F%2Ffonts.googleapis.com%2Fcss%3Ffamily%3DArchitects%2BDaughter;" parent="WIyWlLk6GJQsqaUBKTNV-1" vertex="1">
          <mxGeometry x="530" y="1420" width="160" height="40" as="geometry" />
        </mxCell>
        <mxCell id="794QUzYqEtfinhLW96Dt-74" style="edgeStyle=orthogonalEdgeStyle;rounded=0;sketch=1;hachureGap=4;jiggle=2;curveFitting=1;orthogonalLoop=1;jettySize=auto;html=1;entryX=0.5;entryY=0;entryDx=0;entryDy=0;fontFamily=Architects Daughter;fontSource=https%3A%2F%2Ffonts.googleapis.com%2Fcss%3Ffamily%3DArchitects%2BDaughter;fontSize=16;" parent="WIyWlLk6GJQsqaUBKTNV-1" source="794QUzYqEtfinhLW96Dt-59" target="794QUzYqEtfinhLW96Dt-60" edge="1">
          <mxGeometry relative="1" as="geometry">
            <Array as="points">
              <mxPoint x="790" y="1380" />
              <mxPoint x="250" y="1380" />
            </Array>
          </mxGeometry>
        </mxCell>
        <mxCell id="794QUzYqEtfinhLW96Dt-75" style="edgeStyle=orthogonalEdgeStyle;rounded=0;sketch=1;hachureGap=4;jiggle=2;curveFitting=1;orthogonalLoop=1;jettySize=auto;html=1;entryX=0.5;entryY=0;entryDx=0;entryDy=0;fontFamily=Architects Daughter;fontSource=https%3A%2F%2Ffonts.googleapis.com%2Fcss%3Ffamily%3DArchitects%2BDaughter;fontSize=16;" parent="WIyWlLk6GJQsqaUBKTNV-1" source="794QUzYqEtfinhLW96Dt-59" target="794QUzYqEtfinhLW96Dt-56" edge="1">
          <mxGeometry relative="1" as="geometry" />
        </mxCell>
        <mxCell id="794QUzYqEtfinhLW96Dt-76" style="edgeStyle=orthogonalEdgeStyle;rounded=0;sketch=1;hachureGap=4;jiggle=2;curveFitting=1;orthogonalLoop=1;jettySize=auto;html=1;entryX=0.5;entryY=0;entryDx=0;entryDy=0;fontFamily=Architects Daughter;fontSource=https%3A%2F%2Ffonts.googleapis.com%2Fcss%3Ffamily%3DArchitects%2BDaughter;fontSize=16;" parent="WIyWlLk6GJQsqaUBKTNV-1" source="794QUzYqEtfinhLW96Dt-59" target="794QUzYqEtfinhLW96Dt-55" edge="1">
          <mxGeometry relative="1" as="geometry" />
        </mxCell>
        <mxCell id="794QUzYqEtfinhLW96Dt-77" style="edgeStyle=orthogonalEdgeStyle;rounded=0;sketch=1;hachureGap=4;jiggle=2;curveFitting=1;orthogonalLoop=1;jettySize=auto;html=1;entryX=0.5;entryY=0;entryDx=0;entryDy=0;fontFamily=Architects Daughter;fontSource=https%3A%2F%2Ffonts.googleapis.com%2Fcss%3Ffamily%3DArchitects%2BDaughter;fontSize=16;" parent="WIyWlLk6GJQsqaUBKTNV-1" source="794QUzYqEtfinhLW96Dt-59" target="794QUzYqEtfinhLW96Dt-73" edge="1">
          <mxGeometry relative="1" as="geometry">
            <Array as="points">
              <mxPoint x="790" y="1380" />
              <mxPoint x="1090" y="1380" />
            </Array>
          </mxGeometry>
        </mxCell>
        <mxCell id="794QUzYqEtfinhLW96Dt-59" value="Métodos" style="whiteSpace=wrap;html=1;fontSize=20;fontFamily=Architects Daughter;rounded=0;sketch=1;hachureGap=4;jiggle=2;curveFitting=1;fontSource=https%3A%2F%2Ffonts.googleapis.com%2Fcss%3Ffamily%3DArchitects%2BDaughter;" parent="WIyWlLk6GJQsqaUBKTNV-1" vertex="1">
          <mxGeometry x="690" y="1300" width="200" height="40" as="geometry" />
        </mxCell>
        <mxCell id="794QUzYqEtfinhLW96Dt-78" style="edgeStyle=orthogonalEdgeStyle;rounded=0;sketch=1;hachureGap=4;jiggle=2;curveFitting=1;orthogonalLoop=1;jettySize=auto;html=1;entryX=1;entryY=0.5;entryDx=0;entryDy=0;fontFamily=Architects Daughter;fontSource=https%3A%2F%2Ffonts.googleapis.com%2Fcss%3Ffamily%3DArchitects%2BDaughter;fontSize=16;" parent="WIyWlLk6GJQsqaUBKTNV-1" source="794QUzYqEtfinhLW96Dt-60" target="794QUzYqEtfinhLW96Dt-61" edge="1">
          <mxGeometry relative="1" as="geometry" />
        </mxCell>
        <mxCell id="794QUzYqEtfinhLW96Dt-79" style="edgeStyle=orthogonalEdgeStyle;rounded=0;sketch=1;hachureGap=4;jiggle=2;curveFitting=1;orthogonalLoop=1;jettySize=auto;html=1;entryX=1;entryY=0.5;entryDx=0;entryDy=0;fontFamily=Architects Daughter;fontSource=https%3A%2F%2Ffonts.googleapis.com%2Fcss%3Ffamily%3DArchitects%2BDaughter;fontSize=16;" parent="WIyWlLk6GJQsqaUBKTNV-1" source="794QUzYqEtfinhLW96Dt-60" target="794QUzYqEtfinhLW96Dt-62" edge="1">
          <mxGeometry relative="1" as="geometry" />
        </mxCell>
        <mxCell id="794QUzYqEtfinhLW96Dt-110" style="edgeStyle=orthogonalEdgeStyle;rounded=0;sketch=1;hachureGap=4;jiggle=2;curveFitting=1;orthogonalLoop=1;jettySize=auto;html=1;entryX=1;entryY=0.5;entryDx=0;entryDy=0;fontFamily=Architects Daughter;fontSource=https%3A%2F%2Ffonts.googleapis.com%2Fcss%3Ffamily%3DArchitects%2BDaughter;fontSize=16;" parent="WIyWlLk6GJQsqaUBKTNV-1" source="794QUzYqEtfinhLW96Dt-60" target="794QUzYqEtfinhLW96Dt-109" edge="1">
          <mxGeometry relative="1" as="geometry" />
        </mxCell>
        <mxCell id="794QUzYqEtfinhLW96Dt-60" value="Repositor" style="whiteSpace=wrap;html=1;fontSize=20;fontFamily=Architects Daughter;rounded=0;sketch=1;hachureGap=4;jiggle=2;curveFitting=1;fontSource=https%3A%2F%2Ffonts.googleapis.com%2Fcss%3Ffamily%3DArchitects%2BDaughter;" parent="WIyWlLk6GJQsqaUBKTNV-1" vertex="1">
          <mxGeometry x="170" y="1420" width="160" height="40" as="geometry" />
        </mxCell>
        <mxCell id="794QUzYqEtfinhLW96Dt-61" value="Registar livros" style="whiteSpace=wrap;html=1;fontSize=20;fontFamily=Architects Daughter;rounded=0;sketch=1;hachureGap=4;jiggle=2;curveFitting=1;fontSource=https%3A%2F%2Ffonts.googleapis.com%2Fcss%3Ffamily%3DArchitects%2BDaughter;" parent="WIyWlLk6GJQsqaUBKTNV-1" vertex="1">
          <mxGeometry x="50" y="1500" width="160" height="40" as="geometry" />
        </mxCell>
        <mxCell id="794QUzYqEtfinhLW96Dt-62" value="Atualizar Livros" style="whiteSpace=wrap;html=1;fontSize=20;fontFamily=Architects Daughter;rounded=0;sketch=1;hachureGap=4;jiggle=2;curveFitting=1;fontSource=https%3A%2F%2Ffonts.googleapis.com%2Fcss%3Ffamily%3DArchitects%2BDaughter;" parent="WIyWlLk6GJQsqaUBKTNV-1" vertex="1">
          <mxGeometry x="50" y="1580" width="160" height="40" as="geometry" />
        </mxCell>
        <mxCell id="794QUzYqEtfinhLW96Dt-63" value="Consultar a informação de um livro a partir do código" style="whiteSpace=wrap;html=1;fontSize=20;fontFamily=Architects Daughter;rounded=0;sketch=1;hachureGap=4;jiggle=2;curveFitting=1;fontSource=https%3A%2F%2Ffonts.googleapis.com%2Fcss%3Ffamily%3DArchitects%2BDaughter;" parent="WIyWlLk6GJQsqaUBKTNV-1" vertex="1">
          <mxGeometry x="488" y="1823" width="560" height="40" as="geometry" />
        </mxCell>
        <mxCell id="794QUzYqEtfinhLW96Dt-64" value="Listar os livros pelo género." style="whiteSpace=wrap;html=1;fontSize=20;fontFamily=Architects Daughter;rounded=0;sketch=1;hachureGap=4;jiggle=2;curveFitting=1;fontSource=https%3A%2F%2Ffonts.googleapis.com%2Fcss%3Ffamily%3DArchitects%2BDaughter;" parent="WIyWlLk6GJQsqaUBKTNV-1" vertex="1">
          <mxGeometry x="768" y="2065.5" width="280" height="40" as="geometry" />
        </mxCell>
        <mxCell id="794QUzYqEtfinhLW96Dt-65" value="Listar os livros pelo autor" style="whiteSpace=wrap;html=1;fontSize=20;fontFamily=Architects Daughter;rounded=0;sketch=1;hachureGap=4;jiggle=2;curveFitting=1;fontSource=https%3A%2F%2Ffonts.googleapis.com%2Fcss%3Ffamily%3DArchitects%2BDaughter;" parent="WIyWlLk6GJQsqaUBKTNV-1" vertex="1">
          <mxGeometry x="768" y="2143" width="280" height="40" as="geometry" />
        </mxCell>
        <mxCell id="794QUzYqEtfinhLW96Dt-66" value="Listar Utilizadores" style="whiteSpace=wrap;html=1;fontSize=20;fontFamily=Architects Daughter;rounded=0;sketch=1;hachureGap=4;jiggle=2;curveFitting=1;fontSource=https%3A%2F%2Ffonts.googleapis.com%2Fcss%3Ffamily%3DArchitects%2BDaughter;" parent="WIyWlLk6GJQsqaUBKTNV-1" vertex="1">
          <mxGeometry x="380" y="1500" width="190" height="40" as="geometry" />
        </mxCell>
        <mxCell id="794QUzYqEtfinhLW96Dt-67" value="Vender livros&lt;br&gt;(reduz ao stock)" style="whiteSpace=wrap;html=1;fontSize=20;fontFamily=Architects Daughter;rounded=0;sketch=1;hachureGap=4;jiggle=2;curveFitting=1;fontSource=https%3A%2F%2Ffonts.googleapis.com%2Fcss%3Ffamily%3DArchitects%2BDaughter;" parent="WIyWlLk6GJQsqaUBKTNV-1" vertex="1">
          <mxGeometry x="730" y="1500" width="195" height="80" as="geometry" />
        </mxCell>
        <mxCell id="794QUzYqEtfinhLW96Dt-68" value="Comprar livros&lt;br&gt;(aumenta ao stock)" style="whiteSpace=wrap;html=1;fontSize=20;fontFamily=Architects Daughter;rounded=0;sketch=1;hachureGap=4;jiggle=2;curveFitting=1;fontSource=https%3A%2F%2Ffonts.googleapis.com%2Fcss%3Ffamily%3DArchitects%2BDaughter;" parent="WIyWlLk6GJQsqaUBKTNV-1" vertex="1">
          <mxGeometry x="730" y="1620" width="195" height="80" as="geometry" />
        </mxCell>
        <mxCell id="794QUzYqEtfinhLW96Dt-69" value="Consultar Stock" style="whiteSpace=wrap;html=1;fontSize=20;fontFamily=Architects Daughter;rounded=0;sketch=1;hachureGap=4;jiggle=2;curveFitting=1;fontSource=https%3A%2F%2Ffonts.googleapis.com%2Fcss%3Ffamily%3DArchitects%2BDaughter;" parent="WIyWlLk6GJQsqaUBKTNV-1" vertex="1">
          <mxGeometry x="768" y="1983" width="280" height="40" as="geometry" />
        </mxCell>
        <mxCell id="794QUzYqEtfinhLW96Dt-70" value="Consultar o total de livros vendidos e respetiva receita" style="whiteSpace=wrap;html=1;fontSize=20;fontFamily=Architects Daughter;rounded=0;sketch=1;hachureGap=4;jiggle=2;curveFitting=1;fontSource=https%3A%2F%2Ffonts.googleapis.com%2Fcss%3Ffamily%3DArchitects%2BDaughter;" parent="WIyWlLk6GJQsqaUBKTNV-1" vertex="1">
          <mxGeometry x="488" y="1903" width="560" height="40" as="geometry" />
        </mxCell>
        <mxCell id="794QUzYqEtfinhLW96Dt-71" value="Adicionar Utilizadores" style="whiteSpace=wrap;html=1;fontSize=20;fontFamily=Architects Daughter;rounded=0;sketch=1;hachureGap=4;jiggle=2;curveFitting=1;fontSource=https%3A%2F%2Ffonts.googleapis.com%2Fcss%3Ffamily%3DArchitects%2BDaughter;" parent="WIyWlLk6GJQsqaUBKTNV-1" vertex="1">
          <mxGeometry x="330" y="1580" width="240" height="40" as="geometry" />
        </mxCell>
        <mxCell id="794QUzYqEtfinhLW96Dt-72" value="Remover Utilizadores" style="whiteSpace=wrap;html=1;fontSize=20;fontFamily=Architects Daughter;rounded=0;sketch=1;hachureGap=4;jiggle=2;curveFitting=1;fontSource=https%3A%2F%2Ffonts.googleapis.com%2Fcss%3Ffamily%3DArchitects%2BDaughter;" parent="WIyWlLk6GJQsqaUBKTNV-1" vertex="1">
          <mxGeometry x="330" y="1660" width="240" height="40" as="geometry" />
        </mxCell>
        <mxCell id="794QUzYqEtfinhLW96Dt-85" style="edgeStyle=orthogonalEdgeStyle;rounded=0;sketch=1;hachureGap=4;jiggle=2;curveFitting=1;orthogonalLoop=1;jettySize=auto;html=1;entryX=1;entryY=0.5;entryDx=0;entryDy=0;fontFamily=Architects Daughter;fontSource=https%3A%2F%2Ffonts.googleapis.com%2Fcss%3Ffamily%3DArchitects%2BDaughter;fontSize=16;" parent="WIyWlLk6GJQsqaUBKTNV-1" source="794QUzYqEtfinhLW96Dt-73" target="794QUzYqEtfinhLW96Dt-65" edge="1">
          <mxGeometry relative="1" as="geometry" />
        </mxCell>
        <mxCell id="794QUzYqEtfinhLW96Dt-86" style="edgeStyle=orthogonalEdgeStyle;rounded=0;sketch=1;hachureGap=4;jiggle=2;curveFitting=1;orthogonalLoop=1;jettySize=auto;html=1;entryX=1;entryY=0.5;entryDx=0;entryDy=0;fontFamily=Architects Daughter;fontSource=https%3A%2F%2Ffonts.googleapis.com%2Fcss%3Ffamily%3DArchitects%2BDaughter;fontSize=16;" parent="WIyWlLk6GJQsqaUBKTNV-1" source="794QUzYqEtfinhLW96Dt-73" target="794QUzYqEtfinhLW96Dt-63" edge="1">
          <mxGeometry relative="1" as="geometry" />
        </mxCell>
        <mxCell id="794QUzYqEtfinhLW96Dt-87" style="edgeStyle=orthogonalEdgeStyle;rounded=0;sketch=1;hachureGap=4;jiggle=2;curveFitting=1;orthogonalLoop=1;jettySize=auto;html=1;entryX=1;entryY=0.5;entryDx=0;entryDy=0;fontFamily=Architects Daughter;fontSource=https%3A%2F%2Ffonts.googleapis.com%2Fcss%3Ffamily%3DArchitects%2BDaughter;fontSize=16;" parent="WIyWlLk6GJQsqaUBKTNV-1" source="794QUzYqEtfinhLW96Dt-73" target="794QUzYqEtfinhLW96Dt-70" edge="1">
          <mxGeometry relative="1" as="geometry" />
        </mxCell>
        <mxCell id="794QUzYqEtfinhLW96Dt-88" style="edgeStyle=orthogonalEdgeStyle;rounded=0;sketch=1;hachureGap=4;jiggle=2;curveFitting=1;orthogonalLoop=1;jettySize=auto;html=1;entryX=1;entryY=0.5;entryDx=0;entryDy=0;fontFamily=Architects Daughter;fontSource=https%3A%2F%2Ffonts.googleapis.com%2Fcss%3Ffamily%3DArchitects%2BDaughter;fontSize=16;" parent="WIyWlLk6GJQsqaUBKTNV-1" source="794QUzYqEtfinhLW96Dt-73" target="794QUzYqEtfinhLW96Dt-69" edge="1">
          <mxGeometry relative="1" as="geometry" />
        </mxCell>
        <mxCell id="794QUzYqEtfinhLW96Dt-89" style="edgeStyle=orthogonalEdgeStyle;rounded=0;sketch=1;hachureGap=4;jiggle=2;curveFitting=1;orthogonalLoop=1;jettySize=auto;html=1;entryX=1;entryY=0.5;entryDx=0;entryDy=0;fontFamily=Architects Daughter;fontSource=https%3A%2F%2Ffonts.googleapis.com%2Fcss%3Ffamily%3DArchitects%2BDaughter;fontSize=16;" parent="WIyWlLk6GJQsqaUBKTNV-1" source="794QUzYqEtfinhLW96Dt-73" target="794QUzYqEtfinhLW96Dt-64" edge="1">
          <mxGeometry relative="1" as="geometry" />
        </mxCell>
        <mxCell id="794QUzYqEtfinhLW96Dt-73" value="Funcionário" style="whiteSpace=wrap;html=1;fontSize=20;fontFamily=Architects Daughter;rounded=0;sketch=1;hachureGap=4;jiggle=2;curveFitting=1;fontSource=https%3A%2F%2Ffonts.googleapis.com%2Fcss%3Ffamily%3DArchitects%2BDaughter;" parent="WIyWlLk6GJQsqaUBKTNV-1" vertex="1">
          <mxGeometry x="1008" y="1740" width="159" height="40" as="geometry" />
        </mxCell>
        <mxCell id="794QUzYqEtfinhLW96Dt-90" value="Funcionário" style="swimlane;fontStyle=1;align=center;verticalAlign=top;childLayout=stackLayout;horizontal=1;startSize=40;horizontalStack=0;resizeParent=1;resizeParentMax=0;resizeLast=0;collapsible=1;marginBottom=0;whiteSpace=wrap;html=1;sketch=1;hachureGap=4;jiggle=2;curveFitting=1;fontFamily=Architects Daughter;fontSource=https%3A%2F%2Ffonts.googleapis.com%2Fcss%3Ffamily%3DArchitects%2BDaughter;fontSize=20;" parent="WIyWlLk6GJQsqaUBKTNV-1" vertex="1">
          <mxGeometry x="890" y="640" width="480" height="264" as="geometry" />
        </mxCell>
        <mxCell id="794QUzYqEtfinhLW96Dt-91" value="# nome: string&lt;br&gt;# pass: string" style="text;strokeColor=none;fillColor=none;align=left;verticalAlign=top;spacingLeft=4;spacingRight=4;overflow=hidden;rotatable=0;points=[[0,0.5],[1,0.5]];portConstraint=eastwest;whiteSpace=wrap;html=1;fontSize=20;fontFamily=Architects Daughter;" parent="794QUzYqEtfinhLW96Dt-90" vertex="1">
          <mxGeometry y="40" width="480" height="74" as="geometry" />
        </mxCell>
        <mxCell id="794QUzYqEtfinhLW96Dt-92" value="" style="line;strokeWidth=1;fillColor=none;align=left;verticalAlign=middle;spacingTop=-1;spacingLeft=3;spacingRight=3;rotatable=0;labelPosition=right;points=[];portConstraint=eastwest;strokeColor=inherit;sketch=1;hachureGap=4;jiggle=2;curveFitting=1;fontFamily=Architects Daughter;fontSource=https%3A%2F%2Ffonts.googleapis.com%2Fcss%3Ffamily%3DArchitects%2BDaughter;fontSize=20;" parent="794QUzYqEtfinhLW96Dt-90" vertex="1">
          <mxGeometry y="114" width="480" height="8" as="geometry" />
        </mxCell>
        <mxCell id="794QUzYqEtfinhLW96Dt-93" value="# ConsultarStock(): void;&lt;br&gt;# ConsultarLivro(código:int): void;&lt;br&gt;# ConsultarVendas(): void;&lt;br&gt;# ConsultarLivroGénero(género: string): void;&lt;br&gt;# ConsultarLivroAutor(autor: string): void;" style="text;strokeColor=none;fillColor=none;align=left;verticalAlign=top;spacingLeft=4;spacingRight=4;overflow=hidden;rotatable=0;points=[[0,0.5],[1,0.5]];portConstraint=eastwest;whiteSpace=wrap;html=1;fontSize=20;fontFamily=Architects Daughter;" parent="794QUzYqEtfinhLW96Dt-90" vertex="1">
          <mxGeometry y="122" width="480" height="142" as="geometry" />
        </mxCell>
        <mxCell id="794QUzYqEtfinhLW96Dt-94" value="Caixa" style="swimlane;fontStyle=1;align=center;verticalAlign=top;childLayout=stackLayout;horizontal=1;startSize=40;horizontalStack=0;resizeParent=1;resizeParentMax=0;resizeLast=0;collapsible=1;marginBottom=0;whiteSpace=wrap;html=1;sketch=1;hachureGap=4;jiggle=2;curveFitting=1;fontFamily=Architects Daughter;fontSource=https%3A%2F%2Ffonts.googleapis.com%2Fcss%3Ffamily%3DArchitects%2BDaughter;fontSize=20;" parent="WIyWlLk6GJQsqaUBKTNV-1" vertex="1">
          <mxGeometry x="900" y="1034" width="330" height="216" as="geometry" />
        </mxCell>
        <mxCell id="794QUzYqEtfinhLW96Dt-95" value="- vendasCount: int;&lt;br&gt;- comprasCount: int;&lt;br&gt;- moneyEarned: double;" style="text;strokeColor=none;fillColor=none;align=left;verticalAlign=top;spacingLeft=4;spacingRight=4;overflow=hidden;rotatable=0;points=[[0,0.5],[1,0.5]];portConstraint=eastwest;whiteSpace=wrap;html=1;fontSize=20;fontFamily=Architects Daughter;" parent="794QUzYqEtfinhLW96Dt-94" vertex="1">
          <mxGeometry y="40" width="330" height="90" as="geometry" />
        </mxCell>
        <mxCell id="794QUzYqEtfinhLW96Dt-96" value="" style="line;strokeWidth=1;fillColor=none;align=left;verticalAlign=middle;spacingTop=-1;spacingLeft=3;spacingRight=3;rotatable=0;labelPosition=right;points=[];portConstraint=eastwest;strokeColor=inherit;sketch=1;hachureGap=4;jiggle=2;curveFitting=1;fontFamily=Architects Daughter;fontSource=https%3A%2F%2Ffonts.googleapis.com%2Fcss%3Ffamily%3DArchitects%2BDaughter;fontSize=20;" parent="794QUzYqEtfinhLW96Dt-94" vertex="1">
          <mxGeometry y="130" width="330" height="8" as="geometry" />
        </mxCell>
        <mxCell id="794QUzYqEtfinhLW96Dt-97" value="- sellBook(articleCod: int): void;&lt;br&gt;- buyBook(bookName: string): void;" style="text;strokeColor=none;fillColor=none;align=left;verticalAlign=top;spacingLeft=4;spacingRight=4;overflow=hidden;rotatable=0;points=[[0,0.5],[1,0.5]];portConstraint=eastwest;whiteSpace=wrap;html=1;fontSize=20;fontFamily=Architects Daughter;" parent="794QUzYqEtfinhLW96Dt-94" vertex="1">
          <mxGeometry y="138" width="330" height="78" as="geometry" />
        </mxCell>
        <mxCell id="794QUzYqEtfinhLW96Dt-98" value="Gerente" style="swimlane;fontStyle=1;align=center;verticalAlign=top;childLayout=stackLayout;horizontal=1;startSize=40;horizontalStack=0;resizeParent=1;resizeParentMax=0;resizeLast=0;collapsible=1;marginBottom=0;whiteSpace=wrap;html=1;sketch=1;hachureGap=4;jiggle=2;curveFitting=1;fontFamily=Architects Daughter;fontSource=https%3A%2F%2Ffonts.googleapis.com%2Fcss%3Ffamily%3DArchitects%2BDaughter;fontSize=20;" parent="WIyWlLk6GJQsqaUBKTNV-1" vertex="1">
          <mxGeometry x="1530" y="1034" width="240" height="180" as="geometry" />
        </mxCell>
        <mxCell id="794QUzYqEtfinhLW96Dt-100" value="" style="line;strokeWidth=1;fillColor=none;align=left;verticalAlign=middle;spacingTop=-1;spacingLeft=3;spacingRight=3;rotatable=0;labelPosition=right;points=[];portConstraint=eastwest;strokeColor=inherit;sketch=1;hachureGap=4;jiggle=2;curveFitting=1;fontFamily=Architects Daughter;fontSource=https%3A%2F%2Ffonts.googleapis.com%2Fcss%3Ffamily%3DArchitects%2BDaughter;fontSize=20;" parent="794QUzYqEtfinhLW96Dt-98" vertex="1">
          <mxGeometry y="40" width="240" height="8" as="geometry" />
        </mxCell>
        <mxCell id="794QUzYqEtfinhLW96Dt-101" value="- userList(): void;&lt;br&gt;- addUser(): void;&lt;br&gt;- removeUser(): void;&lt;br&gt;- promoteUser(): void;" style="text;strokeColor=none;fillColor=none;align=left;verticalAlign=top;spacingLeft=4;spacingRight=4;overflow=hidden;rotatable=0;points=[[0,0.5],[1,0.5]];portConstraint=eastwest;whiteSpace=wrap;html=1;fontSize=20;fontFamily=Architects Daughter;" parent="794QUzYqEtfinhLW96Dt-98" vertex="1">
          <mxGeometry y="48" width="240" height="132" as="geometry" />
        </mxCell>
        <mxCell id="794QUzYqEtfinhLW96Dt-102" value="Promover Utilizadores" style="whiteSpace=wrap;html=1;fontSize=20;fontFamily=Architects Daughter;rounded=0;sketch=1;hachureGap=4;jiggle=2;curveFitting=1;fontSource=https%3A%2F%2Ffonts.googleapis.com%2Fcss%3Ffamily%3DArchitects%2BDaughter;" parent="WIyWlLk6GJQsqaUBKTNV-1" vertex="1">
          <mxGeometry x="330" y="1740" width="240" height="40" as="geometry" />
        </mxCell>
        <mxCell id="794QUzYqEtfinhLW96Dt-104" style="edgeStyle=orthogonalEdgeStyle;rounded=0;sketch=1;hachureGap=4;jiggle=2;curveFitting=1;orthogonalLoop=1;jettySize=auto;html=1;fontFamily=Architects Daughter;fontSource=https%3A%2F%2Ffonts.googleapis.com%2Fcss%3Ffamily%3DArchitects%2BDaughter;fontSize=16;entryX=0.497;entryY=1.005;entryDx=0;entryDy=0;entryPerimeter=0;" parent="WIyWlLk6GJQsqaUBKTNV-1" source="794QUzYqEtfinhLW96Dt-94" target="794QUzYqEtfinhLW96Dt-93" edge="1">
          <mxGeometry relative="1" as="geometry">
            <mxPoint x="1350" y="954" as="targetPoint" />
            <Array as="points">
              <mxPoint x="1065" y="960" />
              <mxPoint x="1129" y="960" />
            </Array>
          </mxGeometry>
        </mxCell>
        <mxCell id="794QUzYqEtfinhLW96Dt-106" value="Repositor" style="swimlane;fontStyle=1;align=center;verticalAlign=top;childLayout=stackLayout;horizontal=1;startSize=40;horizontalStack=0;resizeParent=1;resizeParentMax=0;resizeLast=0;collapsible=1;marginBottom=0;whiteSpace=wrap;html=1;sketch=1;hachureGap=4;jiggle=2;curveFitting=1;fontFamily=Architects Daughter;fontSource=https%3A%2F%2Ffonts.googleapis.com%2Fcss%3Ffamily%3DArchitects%2BDaughter;fontSize=20;" parent="WIyWlLk6GJQsqaUBKTNV-1" vertex="1">
          <mxGeometry x="1250" y="1034" width="240" height="160" as="geometry" />
        </mxCell>
        <mxCell id="794QUzYqEtfinhLW96Dt-107" value="" style="line;strokeWidth=1;fillColor=none;align=left;verticalAlign=middle;spacingTop=-1;spacingLeft=3;spacingRight=3;rotatable=0;labelPosition=right;points=[];portConstraint=eastwest;strokeColor=inherit;sketch=1;hachureGap=4;jiggle=2;curveFitting=1;fontFamily=Architects Daughter;fontSource=https%3A%2F%2Ffonts.googleapis.com%2Fcss%3Ffamily%3DArchitects%2BDaughter;fontSize=20;" parent="794QUzYqEtfinhLW96Dt-106" vertex="1">
          <mxGeometry y="40" width="240" height="8" as="geometry" />
        </mxCell>
        <mxCell id="794QUzYqEtfinhLW96Dt-108" value="- addBook(): void;&lt;br&gt;- updateBook(): void;&lt;br&gt;- removeBook(): void;" style="text;strokeColor=none;fillColor=none;align=left;verticalAlign=top;spacingLeft=4;spacingRight=4;overflow=hidden;rotatable=0;points=[[0,0.5],[1,0.5]];portConstraint=eastwest;whiteSpace=wrap;html=1;fontSize=20;fontFamily=Architects Daughter;" parent="794QUzYqEtfinhLW96Dt-106" vertex="1">
          <mxGeometry y="48" width="240" height="112" as="geometry" />
        </mxCell>
        <mxCell id="794QUzYqEtfinhLW96Dt-109" value="Remover Livros" style="whiteSpace=wrap;html=1;fontSize=20;fontFamily=Architects Daughter;rounded=0;sketch=1;hachureGap=4;jiggle=2;curveFitting=1;fontSource=https%3A%2F%2Ffonts.googleapis.com%2Fcss%3Ffamily%3DArchitects%2BDaughter;" parent="WIyWlLk6GJQsqaUBKTNV-1" vertex="1">
          <mxGeometry x="50" y="1660" width="160" height="40" as="geometry" />
        </mxCell>
        <mxCell id="794QUzYqEtfinhLW96Dt-112" value="Book" style="swimlane;fontStyle=1;align=center;verticalAlign=top;childLayout=stackLayout;horizontal=1;startSize=40;horizontalStack=0;resizeParent=1;resizeParentMax=0;resizeLast=0;collapsible=1;marginBottom=0;whiteSpace=wrap;html=1;sketch=1;hachureGap=4;jiggle=2;curveFitting=1;fontFamily=Architects Daughter;fontSource=https%3A%2F%2Ffonts.googleapis.com%2Fcss%3Ffamily%3DArchitects%2BDaughter;fontSize=20;" parent="WIyWlLk6GJQsqaUBKTNV-1" vertex="1">
          <mxGeometry x="515.5" y="540" width="200" height="260" as="geometry" />
        </mxCell>
        <mxCell id="794QUzYqEtfinhLW96Dt-113" value="+ code: int;&lt;br&gt;+ title: string;&lt;br&gt;+ author: string;&lt;br&gt;+ ISBN: int;&lt;br&gt;+ gender: string;&lt;br&gt;+ price: double;&lt;br&gt;+ iva: double;&lt;br&gt;+ stock: int;" style="text;strokeColor=none;fillColor=none;align=left;verticalAlign=top;spacingLeft=4;spacingRight=4;overflow=hidden;rotatable=0;points=[[0,0.5],[1,0.5]];portConstraint=eastwest;whiteSpace=wrap;html=1;fontSize=20;fontFamily=Architects Daughter;" parent="794QUzYqEtfinhLW96Dt-112" vertex="1">
          <mxGeometry y="40" width="200" height="220" as="geometry" />
        </mxCell>
        <mxCell id="794QUzYqEtfinhLW96Dt-119" style="edgeStyle=orthogonalEdgeStyle;rounded=0;sketch=1;hachureGap=4;jiggle=2;curveFitting=1;orthogonalLoop=1;jettySize=auto;html=1;entryX=0.499;entryY=1.002;entryDx=0;entryDy=0;entryPerimeter=0;fontFamily=Architects Daughter;fontSource=https%3A%2F%2Ffonts.googleapis.com%2Fcss%3Ffamily%3DArchitects%2BDaughter;fontSize=16;" parent="WIyWlLk6GJQsqaUBKTNV-1" source="794QUzYqEtfinhLW96Dt-98" target="794QUzYqEtfinhLW96Dt-93" edge="1">
          <mxGeometry relative="1" as="geometry">
            <Array as="points">
              <mxPoint x="1660" y="960" />
              <mxPoint x="1129" y="960" />
            </Array>
          </mxGeometry>
        </mxCell>
        <mxCell id="794QUzYqEtfinhLW96Dt-120" style="edgeStyle=orthogonalEdgeStyle;rounded=0;sketch=1;hachureGap=4;jiggle=2;curveFitting=1;orthogonalLoop=1;jettySize=auto;html=1;entryX=0.505;entryY=1.012;entryDx=0;entryDy=0;entryPerimeter=0;fontFamily=Architects Daughter;fontSource=https%3A%2F%2Ffonts.googleapis.com%2Fcss%3Ffamily%3DArchitects%2BDaughter;fontSize=16;" parent="WIyWlLk6GJQsqaUBKTNV-1" source="794QUzYqEtfinhLW96Dt-106" target="794QUzYqEtfinhLW96Dt-93" edge="1">
          <mxGeometry relative="1" as="geometry">
            <Array as="points">
              <mxPoint x="1280" y="960" />
              <mxPoint x="1132" y="960" />
            </Array>
          </mxGeometry>
        </mxCell>
      </root>
    </mxGraphModel>
  </diagram>
</mxfile>
